<?xml version="1.0" encoding="utf-8"?><!DOCTYPE svg PUBLIC "-//W3C//DTD SVG 1.1//EN" "http://www.w3.org/Graphics/SVG/1.1/DTD/svg11.dtd"><svg width="64" height="62" viewBox="0 0 64 62" xmlns="http://www.w3.org/2000/svg" xmlns:xlink="http://www.w3.org/1999/xlink"><view id="add-image" viewBox="0 0 16 16"/><svg width="16" height="16" viewBox="0 0 25 25"><g fill="#666"><path d="M15.48 3.7h9.517v2.115H15.48z"/><path d="M19.182 0h2.114v9.515h-2.114z"/></g><path fill="#666" d="M.003 9.142V25H15.86V9.142H.004zm11.095 1.794h3.17v3.172H11.1v-3.172zm-6.33 12.267H1.596v-3.17h3.172v3.17zm0-4.547H1.596v-3.17h3.172v3.17zm0-4.55H1.596v-3.17h3.172v3.17zm4.75 9.097h-3.17v-3.17h3.17v3.17zm0-4.547h-3.17v-3.17h3.17v3.17zm0-4.55h-3.17v-3.17h3.17v3.17zm4.9 9.247h-3.47v-3.47h3.47v3.47zm0-4.547h-3.47v-3.47h3.47v3.47z"/><path fill="#666" d="M9.578 14.107h11.63V25H9.58z"/><g fill="#FFF"><path d="M16.21 16.915h.823l1.23 2.13 1.64 2.843h-6.56l1.64-2.844M12.11 19.755l.616 1.064.617 1.068H10.88l.617-1.07"/></g></svg><view id="add-image-grey" viewBox="16 32 16 16"/><svg width="16" height="16" viewBox="0 0 25 25" x="16" y="32"><title>add-image</title><g fill="none" fill-rule="evenodd"><g transform="translate(15)" fill="#BDBDBD"><path d="M.48 3.7h9.517v2.115H.48z"/><path d="M4.182 0h2.114v9.515H4.182z"/></g><path d="M.003 9.142V25H15.86V9.142H.004zm11.095 1.794h3.17v3.172H11.1v-3.172zm-6.33 12.267H1.596v-3.17h3.172v3.17zm0-4.547H1.596v-3.17h3.172v3.17zm0-4.55H1.596v-3.17h3.172v3.17zm4.75 9.097h-3.17v-3.17h3.17v3.17zm0-4.547h-3.17v-3.17h3.17v3.17zm0-4.55h-3.17v-3.17h3.17v3.17zm4.9 9.247h-3.47v-3.47h3.47v3.47zm0-4.547h-3.47v-3.47h3.47v3.47z" fill="#BDBDBD"/><path fill="#BDBDBD" d="M9.578 14.107h11.63V25H9.58z"/><g transform="translate(10 16)" fill="#FFF"><path d="M6.21.915h.823l1.23 2.13 1.64 2.843h-6.56l1.64-2.844L6.212.914zM2.11 3.755l.616 1.064.617 1.068H.88l.617-1.07.612-1.063z"/></g></g></svg><view id="clock" viewBox="0 16 16 16"/><svg width="16" height="16" viewBox="0 0 18 18" y="16"><title>Imported Layers</title><path d="M9 0C4.03 0 0 4.032 0 9c0 4.97 4.03 9 9 9s9-4.03 9-9c0-4.968-4.03-9-9-9zm4.315 11.25H7.498V3h.754l.998 6 4.065 1v1.25z" fill="#767676" fill-rule="evenodd"/></svg><view id="cross" viewBox="16 16 16 16"/><svg width="16" height="16" viewBox="0 0 128 128" x="16" y="16"><path d="M0 119.8l8.2 8.2 62.6-57.2L128 8.2 119.8 0 57.2 57.2zm119.8 8.2l8.2-8.2-57.2-62.6L8.2 0 0 8.2l57.2 62.6z"/></svg><view id="cross-red" viewBox="14 48 13 13"/><svg width="13" height="13" viewBox="1.5 1.5 13 13" x="14" y="48"><path fill="#ED5935" d="M14.5 2.33l-.83-.83L8 6.677 2.33 1.5l-.83.83L6.678 8 1.5 13.67l.83.83L8 9.322l5.67 5.178.83-.83L9.323 8"/></svg><view id="delete" viewBox="32 16 16 16"/><svg width="16" height="16" viewBox="0 0 128 128" x="32" y="16"><path d="M100.7 4.6h-22V0h-27v4.6H27.3l-6 6v10H108v-10zM64 33H19.7l7.4 87.8 7.3 7.2h58.7l7.3-7.2L108 33z"/></svg><view id="down-arrow" viewBox="48 32 14 14"/><svg width="14" height="14" viewBox="0 0 14 14" x="48" y="32"><path fill="#666" d="M13.38 3.353L7 8.69.624 3.353 0 3.975 5.757 9.73l.917.918h.653l.917-.917L14 3.976"/></svg><view id="info-grey" viewBox="0 48 14 14"/><svg width="14" height="14" viewBox="0 0 14 14" y="48"><path fill="#898989" d="M7 0C3.134 0 0 3.134 0 7c0 3.868 3.134 7 7 7s7-3.133 7-7c0-3.866-3.134-7-7-7zm-.008 2.23c.648 0 1.188.53 1.188 1.19 0 .646-.54 1.175-1.188 1.175-.66 0-1.187-.528-1.187-1.176 0-.66.528-1.19 1.187-1.19zm1.87 9.666h-3.67v-.62l.72-.34v-4.14l-.755-.35v-.61l2.807-.446h.18v5.547l.72.338v.62z"/></svg><view id="plus" viewBox="32 32 16 16"/><svg width="16" height="16" viewBox="0 0 18 18" x="32" y="32"><path fill="#666" d="M9 .9c4.467 0 8.1 3.634 8.1 8.1 0 4.467-3.633 8.1-8.1 8.1S.9 13.467.9 9C.9 4.534 4.534.9 9 .9M9 0C4.03 0 0 4.03 0 9s4.03 9 9 9 9-4.03 9-9-4.03-9-9-9z"/><path fill="#666" d="M14.4 8.632l-4.813-.217-.22-4.815h-.735l-.218 4.815-4.813.217v.737l4.814.216.218 4.814h.736l.22-4.814L14.4 9.37"/></svg><view id="preview-eye" viewBox="48 0 16 16"/><svg width="16" height="16" viewBox="0 0 20 20" x="48"><path fill="#666" d="M10 3.867C3.56 3.867 0 9.98 0 9.98s3.56 6.116 10 6.116c6.44 0 10-6.116 10-6.116s-3.56-6.113-10-6.113zm0 9.918c-2.225 0-4.035-1.81-4.035-4.032 0-2.226 1.81-4.035 4.035-4.035s4.033 1.81 4.033 4.035c0 2.224-1.808 4.032-4.033 4.032z"/><circle fill="#666" cx="10" cy="9.753" r="2.018"/></svg><view id="publish" viewBox="48 16 16 16"/><svg width="16" height="16" viewBox="0 0 18 18" x="48" y="16"><g fill="#666"><path d="M0 8.166h6.55v1.638H0zM0 14.71h8.184v1.638H0zM0 11.44h11.458v1.638H0zM.01 4.89h8.173V6.53H.01zM15.34 3.12l-4.705 4.707 1.156 1.158L16.5 4.278l.48 3.675H18V2.015l-.396-.397h-5.938V2.64"/></g></svg><view id="publish-disabled" viewBox="0 32 16 16"/><svg width="16" height="16" viewBox="0 0 18 18" y="32"><g fill="#A7AAAA"><path d="M0 8.166h6.55v1.64H0zM0 14.71h8.184v1.638H0zM0 11.44h11.458v1.638H0zM.01 4.89h8.173V6.53H.01zM15.34 3.12l-4.705 4.707 1.156 1.158L16.5 4.278l.48 3.675H18V2.015l-.396-.397h-5.938V2.64"/></g></svg><view id="tick" viewBox="32 0 16 16"/><svg width="16" height="16" viewBox="0 0 128 128" x="32"><path d="M128 18.6l-6.3-6.3-86 78L6.4 62.6 0 69l32.5 45.4h3z"/></svg><view id="tick-green" viewBox="27 48 13 13"/><svg width="13" height="13" viewBox="1.5 1.5 13 13" x="27" y="48"><path fill="#47AE38" d="M14.5 3.454l-.64-.64-8.743 7.923-2.96-2.812-.657.657 3.295 4.604h.322"/></svg><view id="tick-selected" viewBox="16 0 16 16"/><svg width="16" height="16" viewBox="0 0 128 128" x="16"><path fill="#FFF" d="M128 18.6l-6.3-6.3-86 78L6.4 62.6 0 69l32.5 45.4h3z"/></svg></svg>