<?xml version="1.0" encoding="utf-8"?><!DOCTYPE svg PUBLIC "-//W3C//DTD SVG 1.1//EN" "http://www.w3.org/Graphics/SVG/1.1/DTD/svg11.dtd"><svg width="78" height="77" viewBox="0 0 78 77" xmlns="http://www.w3.org/2000/svg" xmlns:xlink="http://www.w3.org/1999/xlink"><view id="add-image" viewBox="16 0 16 16"/><svg width="16" height="16" viewBox="0 0 25 25" x="16"><g fill="#666"><path d="M15.48 3.701h9.517v2.114H15.48z"/><path d="M19.182 0h2.114v9.515h-2.114z"/></g><path fill="#666" d="M.003 9.142V25h15.858V9.142H.003zm11.095 1.794h3.171v3.172h-3.171v-3.172zm-6.33 12.267H1.596v-3.171h3.172v3.171zm0-4.547H1.596v-3.171h3.172v3.171zm0-4.549H1.596v-3.172h3.172v3.172zm4.75 9.096H6.347v-3.171h3.171v3.171zm0-4.547H6.347v-3.171h3.171v3.171zm0-4.549H6.347v-3.172h3.171v3.172zm4.9 9.246h-3.47v-3.47h3.47v3.47zm0-4.547h-3.47v-3.47h3.47v3.47z"/><path fill="#666" d="M9.578 14.107h11.631V25H9.578z"/><g fill="#FFF"><path d="M16.211 16.915h.822l1.231 2.129 1.638 2.844h-6.559l1.641-2.844zM12.109 19.755l.617 1.064.617 1.069h-2.464l.618-1.069z"/></g></svg><view id="add-image-grey" viewBox="48 16 16 16"/><svg width="16" height="16" viewBox="0 0 25 25" x="48" y="16"><title>add-image</title><g fill="none" fill-rule="evenodd"><g transform="translate(15)" fill="#BDBDBD"><path d="M.48 3.701h9.517v2.114H.48z"/><path d="M4.182 0h2.114v9.515H4.182z"/></g><path d="M.003 9.142V25h15.858V9.142H.003zm11.095 1.794h3.171v3.172h-3.171v-3.172zm-6.33 12.267H1.596v-3.171h3.172v3.171zm0-4.547H1.596v-3.171h3.172v3.171zm0-4.549H1.596v-3.172h3.172v3.172zm4.75 9.096H6.347v-3.171h3.171v3.171zm0-4.547H6.347v-3.171h3.171v3.171zm0-4.549H6.347v-3.172h3.171v3.172zm4.9 9.246h-3.47v-3.47h3.47v3.47zm0-4.547h-3.47v-3.47h3.47v3.47z" fill="#BDBDBD"/><path fill="#BDBDBD" d="M9.578 14.107h11.631V25H9.578z"/><g transform="translate(10 16)" fill="#FFF"><path d="M6.211.915h.822l1.231 2.129 1.638 2.844H3.343l1.641-2.844L6.211.915zM2.109 3.755l.617 1.064.617 1.069H.879l.618-1.069.612-1.064z"/></g></g></svg><view id="article" viewBox="0 16 16 16"/><svg width="16" height="16" viewBox="0 0 128 128" y="16"><path d="M94.8 0H19.4l-8 8v112l8.6 8h87.5l8-8V22L94.7 0zM67.5 112h-40v-12h40v12zm28-24h-68V76h68v12zm0-24h-68V52h68v12zm0-24h-68V28h68v12z"/></svg><view id="clock" viewBox="16 16 16 16"/><svg width="16" height="16" viewBox="0 0 18 18" x="16" y="16"><title>Imported Layers</title><path d="M9 0C4.031 0 0 4.032 0 9c0 4.97 4.031 9 9 9s9-4.03 9-9c0-4.968-4.031-9-9-9zm4.315 11.25H7.498V3h.754l.998 6 4.065.999v1.251z" fill="#767676" fill-rule="evenodd"/></svg><view id="cross" viewBox="32 0 16 16"/><svg width="16" height="16" viewBox="0 0 128 128" x="32"><path d="M0 119.8l8.2 8.2 62.6-57.2L128 8.2 119.8 0 57.2 57.2zm119.8 8.2l8.2-8.2-57.2-62.6L8.2 0 0 8.2l57.2 62.6z"/></svg><view id="cross-red" viewBox="64 41 13 13"/><svg width="13" height="13" viewBox="1.5 1.5 13 13" x="64" y="41"><path fill="#ED5935" d="M14.5 2.33l-.83-.83L8 6.677 2.33 1.5l-.83.83 5.178 5.669L1.5 13.67l.83.83L8 9.322l5.67 5.178.83-.83-5.177-5.671z"/></svg><view id="cross-white" viewBox="64 28 13 13"/><svg width="13" height="13" viewBox="1.5 1.5 13 13" x="64" y="28"><path fill="#FFF" d="M14.5 2.33l-.83-.83L8 6.677 2.33 1.5l-.83.83 5.178 5.669L1.5 13.67l.83.83L8 9.322l5.67 5.178.83-.83-5.177-5.671z"/></svg><view id="delete" viewBox="16 32 16 16"/><svg width="16" height="16" viewBox="0 0 128 128" x="16" y="32"><path d="M100.7 4.6h-22V0h-27v4.6H27.3l-6 6v10H108v-10zM64 33H19.7l7.4 87.8 7.3 7.2h58.7l7.3-7.2L108 33z"/></svg><view id="delete-red" viewBox="32 32 16 16"/><svg width="16" height="16" viewBox="0 0 16 16" x="32" y="32"><path fill="#ED5935" d="M2.8 14.5L4.3 16h7.4l1.5-1.5V3.9H2.8v10.6zM14.2.9h-3.1l-.9-.9H5.8l-.9.9H1.8v1.8h12.4V.9z"/></svg><view id="down-arrow" viewBox="64 14 14 14"/><svg width="14" height="14" viewBox="0 0 14 14" x="64" y="14"><path fill="#666" d="M13.379 3.353L7.001 8.69.623 3.353 0 3.975l5.757 5.756.917.917h.653l.917-.917L14 3.975z"/></svg><view id="failed-face-red" viewBox="0 0 16 16"/><svg width="16" height="16" viewBox="0 0 16 16"><circle fill="#ED5935" cx="8" cy="8" r="8"/><g fill="#FFF"><path d="M3.377 4.236l3.75 3.745-.92.92-3.75-3.744z"/><path d="M6.274 4.16l.92.92-3.74 3.753-.92-.918z"/></g><g fill="#FFF"><path d="M10.093 4.197l3.75 3.745-.918.92-3.75-3.745z"/><path d="M12.99 4.122l.92.918-3.74 3.754-.92-.918z"/></g><path fill="#FFF" d="M5.7 13.4l-1.4-.6c.6-1.5 2.1-2.5 3.7-2.5s3.1 1 3.7 2.4l-1.4.6c-.4-.8-1.3-1.4-2.3-1.4-1 0-1.9.6-2.3 1.5z"/></svg><view id="info-grey" viewBox="64 0 14 14"/><svg width="14" height="14" viewBox="0 0 14 14" x="64"><path fill="#898989" d="M7 0a7 7 0 1 0 0 14A7 7 0 0 0 7 0zm-.008 2.231c.648 0 1.188.529 1.188 1.188a1.188 1.188 0 0 1-2.375 0 1.184 1.184 0 0 1 1.187-1.188zm1.871 9.665h-3.67v-.621l.72-.338V6.795l-.756-.349v-.611l2.807-.445h.18v5.547l.72.338v.621z"/></svg><view id="plus" viewBox="0 48 16 16"/><svg width="16" height="16" viewBox="0 0 18 18" y="48"><path fill="#666" d="M9 .9c4.467 0 8.1 3.634 8.1 8.1 0 4.467-3.633 8.1-8.099 8.1S.9 13.467.9 9C.9 4.534 4.534.9 9 .9M9 0a9 9 0 1 0 .001 18.001A9 9 0 0 0 9 0z"/><path fill="#666" d="M14.4 8.632l-4.813-.217L9.368 3.6h-.736l-.218 4.815-4.813.217v.737l4.813.217.218 4.814h.736l.219-4.814 4.813-.217z"/></svg><view id="preview-eye" viewBox="16 48 16 16"/><svg width="16" height="16" viewBox="0 0 20 20" x="16" y="48"><path fill="#666" d="M10 3.867C3.561 3.867 0 9.98 0 9.98s3.561 6.116 10 6.116S20 9.98 20 9.98s-3.561-6.113-10-6.113zm0 9.918a4.038 4.038 0 0 1-4.035-4.032A4.04 4.04 0 0 1 10 5.718a4.038 4.038 0 0 1 4.033 4.035A4.036 4.036 0 0 1 10 13.785z"/><circle fill="#666" cx="10" cy="9.753" r="2.018"/></svg><view id="publish" viewBox="32 48 16 16"/><svg width="16" height="16" viewBox="0 0 18 18" x="32" y="48"><g fill="#666"><path d="M0 8.166h6.549v1.638H0zM0 14.711h8.184v1.637H0zM0 11.439h11.458v1.639H0zM.009 4.891h8.174v1.637H.009zM15.34 3.121l-4.705 4.706 1.156 1.158 4.707-4.707.479 3.675H18V2.015l-.396-.397h-5.938v1.023z"/></g></svg><view id="publish-disabled" viewBox="48 32 16 16"/><svg width="16" height="16" viewBox="0 0 18 18" x="48" y="32"><g fill="#A7AAAA"><path d="M0 8.166h6.549v1.639H0zM0 14.711h8.184v1.637H0zM0 11.439h11.458v1.639H0zM.009 4.891h8.174v1.637H.009zM15.34 3.121l-4.705 4.706 1.156 1.158 4.707-4.707.479 3.675H18V2.015l-.396-.397h-5.938v1.023z"/></g></svg><view id="rollback-grey" viewBox="48 0 16 16"/><svg width="16" height="16" viewBox="0 0 16 16" x="48"><path fill="#666" d="M6.9 9.9H.4l-.4.7 3.2 3.2h.9l3.2-3.2"/><path fill="#666" d="M9.2 2.1c-3.7 0-6.8 3-6.8 6.8v2.2h2.3V8.9c0-2.4 2-4.4 4.4-4.4 2.4 0 4.4 2 4.4 4.4v4.9H16V8.9c0-3.7-3-6.8-6.8-6.8z"/></svg><view id="tag-white-30" viewBox="0 32 16 16"/><svg width="16" height="16" viewBox="0 0 30 30" y="32"><path fill="#FFF" d="M20.1 0h-10L5.9 5.4V30l9.1-2.6 9 2.6V5.5L20.1 0zM15 8.8c-1.5 0-2.7-1.2-2.7-2.7 0-1.5 1.2-2.7 2.7-2.7 1.5 0 2.7 1.2 2.7 2.7 0 1.5-1.2 2.7-2.7 2.7z"/></svg><view id="tick" viewBox="32 16 16 16"/><svg width="16" height="16" viewBox="0 0 128 128" x="32" y="16"><path d="M128 18.6l-6.3-6.3-86 78L6.4 62.6 0 69l32.5 45.4h3z"/></svg><view id="tick-green" viewBox="0 64 13 13"/><svg width="13" height="13" viewBox="1.5 1.5 13 13" y="64"><path fill="#47AE38" d="M14.5 3.454l-.639-.639-8.744 7.922-2.959-2.812-.658.657 3.295 4.604h.322z"/></svg><view id="tick-selected" viewBox="48 48 16 16"/><svg width="16" height="16" viewBox="0 0 128 128" x="48" y="48"><path fill="#FFF" d="M128 18.6l-6.3-6.3-86 78L6.4 62.6 0 69l32.5 45.4h3z"/></svg></svg>