<?xml version="1.0" encoding="utf-8"?>
<!-- Generator: Adobe Illustrator 16.0.1, SVG Export Plug-In . SVG Version: 6.00 Build 0)  -->
<!DOCTYPE svg PUBLIC "-//W3C//DTD SVG 1.1//EN" "http://www.w3.org/Graphics/SVG/1.1/DTD/svg11.dtd">
<svg version="1.1" id="Layer_1" xmlns="http://www.w3.org/2000/svg" xmlns:xlink="http://www.w3.org/1999/xlink" x="0px" y="0px"
	 width="25px" height="25px" viewBox="0 0 25 25" enable-background="new 0 0 25 25" xml:space="preserve">
<g>
	<rect x="15.48" y="3.701" fill="#666666" width="9.517" height="2.114"/>
	<rect x="19.182" fill="#666666" width="2.114" height="9.515"/>
</g>
<path fill="#666666" d="M0.003,9.142V25h15.858V9.142H0.003z M11.098,10.936h3.171v3.172h-3.171V10.936z M4.768,23.203H1.596v-3.171
	h3.172V23.203z M4.768,18.656H1.596v-3.171h3.172V18.656z M4.768,14.107H1.596v-3.172h3.172V14.107z M9.518,23.203H6.347v-3.171
	h3.171V23.203z M9.518,18.656H6.347v-3.171h3.171V18.656z M9.518,14.107H6.347v-3.172h3.171V14.107z M14.418,23.353h-3.47v-3.47
	h3.47V23.353z M14.418,18.806h-3.47v-3.47h3.47V18.806z"/>
<g>
	<rect x="9.578" y="14.107" fill="#666666" width="11.631" height="10.893"/>
</g>
<g>
	<polygon fill="#FFFFFF" points="16.211,16.915 17.033,16.915 18.264,19.044 19.902,21.888 16.624,21.888 13.343,21.888 
		14.984,19.044 	"/>
	<polygon fill="#FFFFFF" points="12.109,19.755 12.726,20.819 13.343,21.888 12.109,21.888 10.879,21.888 11.497,20.819 	"/>
</g>
</svg>
