<svg xmlns="http://www.w3.org/2000/svg" width="16" height="16" viewBox="0 0 16 16"><circle fill="#ED5935" cx="8" cy="8" r="8"/><g fill="#FFF"><path d="M3.377 4.236l3.75 3.745-.92.92-3.75-3.744z"/><path d="M6.274 4.16l.92.92-3.74 3.753-.92-.918z"/></g><g fill="#FFF"><path d="M10.093 4.197l3.75 3.745-.918.92-3.75-3.745z"/><path d="M12.99 4.122l.92.918-3.74 3.754-.92-.918z"/></g><path fill="#FFF" d="M5.7 13.4l-1.4-.6c.6-1.5 2.1-2.5 3.7-2.5s3.1 1 3.7 2.4l-1.4.6c-.4-.8-1.3-1.4-2.3-1.4-1 0-1.9.6-2.3 1.5z"/></svg>