<?xml version="1.0" encoding="utf-8"?>
<!-- Generator: Adobe Illustrator 16.0.1, SVG Export Plug-In . SVG Version: 6.00 Build 0)  -->
<!DOCTYPE svg PUBLIC "-//W3C//DTD SVG 1.1//EN" "http://www.w3.org/Graphics/SVG/1.1/DTD/svg11.dtd">
<svg version="1.1" id="Layer_1" xmlns="http://www.w3.org/2000/svg" xmlns:xlink="http://www.w3.org/1999/xlink" x="0px" y="0px"
	 width="14px" height="14px" viewBox="0 0 14 14" enable-background="new 0 0 14 14" xml:space="preserve">
<path fill="#898989" d="M7,0C3.134,0,0,3.134,0,7c0,3.868,3.134,7,7,7s7-3.133,7-7C14,3.134,10.866,0,7,0z M6.992,2.231
	c0.648,0,1.188,0.529,1.188,1.188c0,0.647-0.539,1.176-1.188,1.176c-0.659,0-1.187-0.528-1.187-1.176
	C5.806,2.76,6.333,2.231,6.992,2.231z M8.863,11.896h-3.67v-0.621l0.72-0.338V6.795L5.157,6.446V5.835L7.964,5.39h0.18v5.547
	l0.72,0.338V11.896z"/>
</svg>
