<?xml version="1.0" encoding="utf-8"?>
<!-- Generator: Adobe Illustrator 16.0.1, SVG Export Plug-In . SVG Version: 6.00 Build 0)  -->
<!DOCTYPE svg PUBLIC "-//W3C//DTD SVG 1.1//EN" "http://www.w3.org/Graphics/SVG/1.1/DTD/svg11.dtd">
<svg version="1.1" id="Layer_1" xmlns="http://www.w3.org/2000/svg" xmlns:xlink="http://www.w3.org/1999/xlink" x="0px" y="0px"
	 width="18px" height="18px" viewBox="0 0 18 18" enable-background="new 0 0 18 18" xml:space="preserve">
<g>
	<g>
		<path fill="#666666" d="M9,0.9C13.467,0.9,17.1,4.534,17.1,9c0,4.467-3.633,8.1-8.099,8.1S0.9,13.467,0.9,9
			C0.9,4.534,4.534,0.9,9,0.9 M9,0C4.03,0,0,4.03,0,9c0,4.971,4.029,9,9,9c4.97,0,9-4.029,9-9C18,4.03,13.971,0,9,0L9,0z"/>
	</g>
	<polygon fill="#666666" points="14.4,8.632 9.587,8.415 9.368,3.6 8.632,3.6 8.414,8.415 3.601,8.632 3.601,9.369 8.414,9.586 
		8.632,14.4 9.368,14.4 9.587,9.586 14.4,9.369 	"/>
</g>
</svg>
